<?xml version="1.0" encoding="UTF-8" standalone="no"?>
<!DOCTYPE svg PUBLIC "-//W3C//DTD SVG 1.1//EN" "http://www.w3.org/Graphics/SVG/1.1/DTD/svg11.dtd">
<svg xmlns="http://www.w3.org/2000/svg" xmlns:xlink="http://www.w3.org/1999/xlink" version="1.1" width="271.255pt" height="64.9819pt" viewBox="0 0 271.255 64.9819">
<g enable-background="new">
<g id="Layer-1" data-name="Layer 1">
<clipPath id="cp0">
<path transform="matrix(1,0,0,-1,0,64.9819)" d="M 0 64.982 L 271.255 64.982 L 271.255 0 L 0 0 Z "/>
</clipPath>
<g clip-path="url(#cp0)">
<path transform="matrix(1,0,0,-1,104.4427,3.5403023)" d="M 0 0 C 6.233 0 17.512 -2.671 17.512 -10.092 L 17.512 -14.841 L 11.279 -14.841 L 11.279 -12.17 C 11.279 -8.311 4.749 -6.233 0 -6.233 C -9.498 -6.233 -16.622 -13.357 -16.622 -23.746 C -16.622 -33.837 -9.201 -42.148 .297 -42.148 C 9.498 -42.148 15.138 -35.915 15.138 -35.915 L 18.7 -40.664 C 18.7 -40.664 12.17 -48.382 .297 -48.382 C -13.654 -48.382 -23.449 -37.696 -23.449 -23.746 C -23.449 -10.389 -13.357 0 0 0 " fill="#0072bc"/>
<path transform="matrix(1,0,0,-1,129.3755,11.257603)" d="M 0 0 C 0 .89 -.594 1.484 -1.484 1.484 L -4.155 1.484 L -4.155 6.827 L 2.078 6.827 C 5.046 6.827 6.233 5.64 6.233 2.671 L 6.233 -32.947 C 6.233 -33.837 6.827 -34.431 7.717 -34.431 L 10.389 -34.431 L 10.389 -39.774 L 4.155 -39.774 C 1.187 -39.774 0 -38.587 0 -35.618 L 0 0 C 0 0 0 0 0 0 " fill="#0072bc"/>
<path transform="matrix(1,0,0,-1,166.7747,30.550904)" d="M 0 0 C -.297 5.64 -3.562 8.608 -8.014 8.608 C -12.763 8.608 -16.919 5.64 -17.809 0 Z M -7.717 13.654 C 1.781 13.654 6.827 6.53 6.827 -2.078 C 6.827 -2.968 6.53 -4.749 6.53 -4.749 L -17.809 -4.749 C -17.512 -11.873 -12.17 -16.028 -6.233 -16.028 C -.594 -16.028 3.562 -12.17 3.562 -12.17 L 6.233 -16.622 C 6.233 -16.622 1.187 -21.668 -6.53 -21.668 C -17.215 -21.668 -24.339 -13.95 -24.339 -4.155 C -24.339 6.827 -17.216 13.654 -7.717 13.654 " fill="#0072bc"/>
<path transform="matrix(1,0,0,-1,178.3507,24.317704)" d="M 0 0 C -.297 .89 -.89 1.187 -2.078 1.187 L -2.671 1.187 L -2.671 6.827 L .594 6.827 C 3.562 6.827 4.749 6.233 5.64 3.562 L 12.763 -15.731 C 13.357 -17.512 13.95 -20.184 13.95 -20.184 C 13.95 -20.184 14.544 -17.809 15.138 -15.731 L 22.261 3.562 C 23.152 6.233 24.339 6.827 27.307 6.827 L 30.276 6.827 L 30.276 1.187 C 29.088 1.187 28.495 .89 28.198 0 L 18.106 -26.714 L 10.685 -26.714 Z " fill="#0072bc"/>
<path transform="matrix(1,0,0,-1,218.4213,59.342306)" d="M 0 0 C 2.671 0 4.749 1.781 5.936 4.749 L 7.42 8.311 L -4.155 35.025 C -4.749 36.212 -5.343 36.212 -6.233 36.212 L -7.124 36.212 L -7.124 41.852 L -3.265 41.852 C -.594 41.852 .297 41.258 1.484 38.587 L 9.201 19.59 C 9.795 17.809 10.389 15.435 10.389 15.435 C 10.389 15.435 10.982 17.809 11.576 19.59 L 18.403 38.587 C 19.293 41.258 20.481 41.852 23.152 41.852 L 27.011 41.852 L 27.011 36.212 L 26.12 36.212 C 24.933 36.212 24.339 35.915 24.042 35.025 L 10.686 2.375 C 8.608 -2.671 4.452 -5.64 0 -5.64 C -5.046 -5.64 -8.014 -2.375 -8.014 -2.375 L -5.343 2.375 C -5.046 2.078 -2.968 0 0 0 " fill="#0072bc"/>
<path transform="matrix(1,0,0,-1,252.5555,24.614502)" d="M 0 0 C 0 .89 -.594 1.484 -1.484 1.484 L -4.155 1.484 L -4.155 7.124 L 2.078 7.124 C 5.046 7.124 6.233 5.936 6.233 3.265 L 6.233 1.187 L 6.233 -1.187 C 7.717 3.562 11.576 7.42 16.919 7.42 L 18.7 7.42 L 18.7 1.187 C 18.7 1.187 17.809 1.484 16.919 1.484 C 12.763 1.484 8.905 -1.484 7.42 -6.53 C 6.827 -8.311 6.53 -10.389 6.53 -12.466 L 6.53 -26.417 L 0 -26.417 Z " fill="#0072bc"/>
<path transform="matrix(1,0,0,-1,49.5265,1.4447022)" d="M 0 0 L 0 0 L -19.978 -16.732 L -39.955 0 L -39.956 0 L -49.059 -39.817 L -42.476 -38.582 L -19.978 -60.408 L -19.978 -60.409 L -19.977 -60.409 L -19.977 -60.408 L 2.52 -38.582 L 9.103 -39.817 Z " fill="#ffffff"/>
<path transform="matrix(1,0,0,-1,51.5836,37.985605)" d="M 0 0 L -20.603 -20.603 L -20.365 -19.821 C -17.328 -9.522 -11.72 -.165 -4.07 7.37 L -4.067 7.374 L -4.067 7.375 L -2.032 5.641 C .424 3.548 2.759 1.317 4.963 -1.039 Z M -1.736 37.986 L -22.035 20.453 L -22.035 -25.313 L .825 -2.442 L 7.514 -3.736 Z " fill="#e97724"/>
<path transform="matrix(1,0,0,-1,2.5506,39.024404)" d="M 0 0 C 2.204 2.356 4.539 4.586 6.995 6.679 L 9.03 8.414 L 9.03 8.413 L 9.033 8.408 C 16.683 .874 22.291 -8.483 25.328 -18.782 L 25.566 -19.564 L 4.963 1.039 Z M -2.551 -2.697 L 4.138 -1.403 L 26.999 -24.274 L 26.999 21.492 L 6.699 39.024 Z " fill="#ff9100"/>
<path transform="matrix(1,0,0,-1,9.2497,0)" d="M 0 0 L 9.467 -22.538 L 20.3 -17.533 Z " fill="#e97724"/>
<path transform="matrix(1,0,0,-1,49.8476,0)" d="M 0 0 L -9.467 -22.538 L -20.3 -17.533 Z " fill="#ff9100"/>
</g>
</g>
</g>
</svg>
